<svg viewBox="0 0 16000 9000" xmlns="http://www.w3.org/2000/svg" xml:space="preserve" style="fill-rule:evenodd;clip-rule:evenodd;stroke-linejoin:round;stroke-miterlimit:2"><clipPath id="a"><path d="M4034.99 375.076h11965v6227.37h-11965z"/></clipPath><g clip-path="url(#a)"><path d="M12127.5 2091.66c166.28-975.968 963.358-1716.58 1920.34-1716.58 1077.44 0 1952.18 938.792 1952.18 2095.13H14727.2l-660.251 353.636v1243.91l820.662 439.557h1112.41c0 1156.34-874.743 2095.13-1952.18 2095.13-984.891 0-1800.41-784.434-1933.26-1802.5h-8069.58c-132.848 1018.06-948.371 1802.5-1933.25 1802.5-1077.44 0-1952.19-938.792-1952.19-2095.13h1394.86l820.662-439.557v-1243.91l-660.251-353.636H159.562c0-1156.34 874.752-2095.13 1952.19-2095.13 956.976 0 1754.05 740.611 1920.34 1716.58h8095.41Z" style="fill:#3a6b35"/></g><text x="4776.5" y="4500" style="font-family:'OleoScript-Regular','Oleo Script';font-size:2897.53px;fill:#e3b448">Fix-It</text><path d="M2346.62 821.521c1295.13 0 2346.62 1182.99 2346.62 2640.1s-1051.48 2640.1-2346.62 2640.1C1051.49 6101.721 0 4918.731 0 3461.621s1051.48-2640.1 2346.62-2640.1Zm163.29 820.111a1559.606 1559.606 0 0 0-326.58 0l-53.787 283.597c-104.094 17.251-206.119 46.858-304.231 88.287l-177.508-216.475c-99.331 48.913-194.049 108.139-282.827 176.848l84.346 274.728c-82.184 71.309-156.871 152.197-222.713 241.205l-253.665-91.349c-63.442 96.149-118.127 198.732-163.29 306.31l199.878 192.247c-38.252 106.259-65.59 216.755-81.518 329.492l-261.854 58.253a1979.724 1979.724 0 0 0 0 353.697l261.854 58.253c15.928 112.737 43.266 223.233 81.518 329.492l-199.878 192.247c45.163 107.578 99.848 210.161 163.29 306.31l253.665-91.349c65.842 89.008 140.529 169.896 222.713 241.205l-84.346 274.728c88.778 68.709 183.496 127.935 282.827 176.848l177.508-216.475c98.112 41.429 200.137 71.036 304.231 88.287l53.787 283.597a1559.606 1559.606 0 0 0 326.58 0l53.787-283.597c104.094-17.251 206.119-46.858 304.231-88.287l177.508 216.475c99.331-48.913 194.05-108.139 282.827-176.848l-84.346-274.728c82.184-71.309 156.871-152.197 222.713-241.205l253.666 91.349c63.441-96.149 118.127-198.732 163.29-306.31l-199.879-192.247c38.252-106.259 65.59-216.755 81.518-329.492l261.854-58.253a1979.724 1979.724 0 0 0 0-353.697l-261.854-58.253c-15.928-112.737-43.266-223.233-81.518-329.492l199.879-192.247c-45.163-107.578-99.849-210.161-163.29-306.31l-253.666 91.349c-65.842-89.008-140.529-169.896-222.713-241.205l84.346-274.728c-88.777-68.709-183.496-127.935-282.827-176.848l-177.508 216.475c-98.112-41.429-200.137-71.036-304.231-88.287l-53.787-283.597Z" style="fill:#3a6b35"/><text x="4228.05" y="6093.32" style="font-family:'Roboto-Regular','Roboto';font-size:860.288px;fill:#3a6b35">Mobile V<tspan x="7567.55" y="6093.32">e</tspan>lo Ser<tspan x="10200.5" y="6093.32">v</tspan>ice</text></svg>