<?xml version="1.0" encoding="UTF-8" standalone="no"?><!DOCTYPE svg PUBLIC "-//W3C//DTD SVG 1.1//EN" "http://www.w3.org/Graphics/SVG/1.1/DTD/svg11.dtd"><svg width="100%" height="100%" viewBox="0 0 16000 9000" version="1.1" xmlns="http://www.w3.org/2000/svg" xmlns:xlink="http://www.w3.org/1999/xlink" xml:space="preserve" xmlns:serif="http://www.serif.com/" style="fill-rule:evenodd;clip-rule:evenodd;stroke-linejoin:round;stroke-miterlimit:2;"><clipPath id="_clip1"><rect x="4034.99" y="375.076" width="11965" height="6227.37"/></clipPath><g clip-path="url(#_clip1)"><path d="M12127.5,2091.66c166.28,-975.968 963.358,-1716.58 1920.34,-1716.58c1077.44,0 1952.18,938.792 1952.18,2095.13l-1272.82,0l-660.251,353.636l0,1243.91l820.662,439.557l1112.41,0c0,1156.34 -874.743,2095.13 -1952.18,2095.13c-984.891,0 -1800.41,-784.434 -1933.26,-1802.5l-8069.58,0c-132.848,1018.06 -948.371,1802.5 -1933.25,1802.5c-1077.44,0 -1952.19,-938.792 -1952.19,-2095.13l1394.86,0l820.662,-439.557l0,-1243.91l-660.251,-353.636l-1555.27,0c0,-1156.34 874.752,-2095.13 1952.19,-2095.13c956.976,0 1754.05,740.611 1920.34,1716.58l8095.41,0Z" style="fill:#3a6b35;"/></g><text x="4776.5px" y="4500px" style="font-family:'OleoScript-Regular', 'Oleo Script';font-size:2897.53px;fill:#e3b448;">Fix-It</text><path d="M2346.62,821.521c1295.13,0 2346.62,1182.99 2346.62,2640.1c0,1457.11 -1051.48,2640.1 -2346.62,2640.1c-1295.13,0 -2346.62,-1182.99 -2346.62,-2640.1c0,-1457.11 1051.48,-2640.1 2346.62,-2640.1Zm163.29,820.111c-108.604,-11.429 -217.976,-11.429 -326.58,0l-53.787,283.597c-104.094,17.251 -206.119,46.858 -304.231,88.287l-177.508,-216.475c-99.331,48.913 -194.049,108.139 -282.827,176.848l84.346,274.728c-82.184,71.309 -156.871,152.197 -222.713,241.205l-253.665,-91.349c-63.442,96.149 -118.127,198.732 -163.29,306.31l199.878,192.247c-38.252,106.259 -65.59,216.755 -81.518,329.492l-261.854,58.253c-10.553,117.622 -10.553,236.075 0,353.697l261.854,58.253c15.928,112.737 43.266,223.233 81.518,329.492l-199.878,192.247c45.163,107.578 99.848,210.161 163.29,306.31l253.665,-91.349c65.842,89.008 140.529,169.896 222.713,241.205l-84.346,274.728c88.778,68.709 183.496,127.935 282.827,176.848l177.508,-216.475c98.112,41.429 200.137,71.036 304.231,88.287l53.787,283.597c108.604,11.429 217.976,11.429 326.58,0l53.787,-283.597c104.094,-17.251 206.119,-46.858 304.231,-88.287l177.508,216.475c99.331,-48.913 194.05,-108.139 282.827,-176.848l-84.346,-274.728c82.184,-71.309 156.871,-152.197 222.713,-241.205l253.666,91.349c63.441,-96.149 118.127,-198.732 163.29,-306.31l-199.879,-192.247c38.252,-106.259 65.59,-216.755 81.518,-329.492l261.854,-58.253c10.553,-117.622 10.553,-236.075 0,-353.697l-261.854,-58.253c-15.928,-112.737 -43.266,-223.233 -81.518,-329.492l199.879,-192.247c-45.163,-107.578 -99.849,-210.161 -163.29,-306.31l-253.666,91.349c-65.842,-89.008 -140.529,-169.896 -222.713,-241.205l84.346,-274.728c-88.777,-68.709 -183.496,-127.935 -282.827,-176.848l-177.508,216.475c-98.112,-41.429 -200.137,-71.036 -304.231,-88.287l-53.787,-283.597Z" style="fill:#3a6b35;"/><text x="4228.05px" y="6093.32px" style="font-family:'Roboto-Regular', 'Roboto';font-size:860.288px;fill:#3a6b35;">Mobile V<tspan x="7567.55px " y="6093.32px ">e</tspan>lo Ser<tspan x="10200.5px " y="6093.32px ">v</tspan>ice</text></svg>